# xmcd
#
# Track frame offsets:
#	150
#	42127
#	92037
#	127948
#	156124
#
# Disc length: 2602 seconds
#
# Revision: 1
# Processed by: cddbd v1.5.2PL0 Copyright (c) Steve Scherf et al.
# Submitted via: audiograbber 1.83.01
#
DISCID=320a2805
DTITLE=Grateful Dead - 78-11-20 Cleveland Music Hall, Cleveland OH
DYEAR=1900
DGENRE=
TTITLE0=Playing In The Band
TTITLE1=Shakedown Street
TTITLE2=If I Had The World To Give
TTITLE3=Playing In The Band
TTITLE4=Around and Around
EXTD=
EXTT0=
EXTT1=
EXTT2=
EXTT3=
EXTT4=
PLAYORDER=
